<?xml version="1.0" standalone="no"?>
<!DOCTYPE svg PUBLIC "-//W3C//DTD SVG 20010904//EN"
 "http://www.w3.org/TR/2001/REC-SVG-20010904/DTD/svg10.dtd">
<svg version="1.0" xmlns="http://www.w3.org/2000/svg"
 width="512.000000pt" height="512.000000pt" viewBox="0 0 512.000000 512.000000"
 preserveAspectRatio="xMidYMid meet">

<g transform="translate(0.000000,512.000000) scale(0.100000,-0.100000)"
fill="#000000" stroke="none">
<path d="M213 5102 c-63 -22 -115 -61 -154 -115 -62 -86 -60 -28 -57 -1328 l3
-1184 27 -50 c31 -60 89 -120 140 -146 72 -37 147 -40 1014 -37 812 3 843 4
863 22 25 22 28 73 7 102 -14 18 -38 19 -898 24 -797 5 -886 7 -913 22 -39 21
-71 56 -84 91 -8 19 -11 389 -11 1181 l0 1152 23 44 c16 33 34 51 67 68 l44
22 1152 0 c792 0 1162 -3 1181 -11 35 -13 70 -45 91 -84 15 -27 17 -116 22
-913 5 -860 6 -884 24 -898 29 -21 80 -18 102 7 18 20 19 51 22 863 2 564 -1
864 -8 911 -17 111 -74 190 -174 243 l-51 27 -1190 2 c-1123 2 -1193 2 -1242
-15z"/>
<path d="M1407 4473 c-25 -7 -47 -56 -47 -108 l0 -45 -335 0 -336 0 -24 -25
c-32 -31 -32 -69 0 -100 l24 -25 566 0 c311 0 565 -3 565 -6 0 -3 -18 -52 -40
-109 -73 -185 -184 -383 -298 -527 l-45 -58 -45 58 c-68 87 -148 213 -212 336
-65 126 -89 147 -138 127 -17 -7 -35 -25 -42 -42 -11 -27 -8 -38 34 -126 63
-130 135 -247 224 -366 l75 -99 -49 -50 c-66 -67 -188 -166 -290 -234 -118
-78 -134 -106 -93 -158 35 -45 73 -36 191 44 103 69 158 113 282 224 l66 58
68 -63 c149 -141 360 -289 411 -289 45 0 73 32 69 78 -3 34 -9 41 -100 102
-106 70 -251 186 -312 249 l-38 39 48 58 c132 163 292 452 357 649 l34 100
112 5 c97 4 115 8 127 24 23 33 18 82 -12 105 -26 20 -38 21 -360 21 l-334 0
0 59 c0 52 -3 62 -26 80 -26 21 -41 23 -77 14z"/>
<path d="M3238 4343 c-165 -124 -183 -141 -186 -170 -2 -18 0 -39 5 -47 17
-30 356 -276 380 -276 57 0 94 50 73 99 -6 14 -45 51 -86 81 l-76 55 146 3
c104 2 164 -2 212 -13 183 -42 326 -184 369 -366 11 -49 15 -129 15 -341 0
-265 1 -279 20 -298 30 -30 83 -27 110 7 21 27 21 33 18 333 -4 301 -4 306
-31 387 -65 195 -216 346 -411 410 -71 23 -104 27 -261 32 l-179 6 73 54 c80
59 98 89 81 132 -11 26 -46 49 -75 49 -8 0 -97 -62 -197 -137z"/>
<path d="M2509 2870 c-60 -10 -136 -50 -176 -92 -18 -18 -45 -60 -60 -93 l-28
-60 -3 -1140 c-3 -1175 -1 -1239 37 -1313 26 -51 86 -109 146 -140 l50 -27
1205 0 1205 0 46 21 c67 31 124 87 156 152 l28 57 0 1205 0 1205 -27 50 c-31
59 -89 120 -139 146 -62 31 -153 39 -470 39 -315 0 -360 -5 -379 -40 -14 -27
-12 -63 4 -86 14 -18 33 -19 378 -24 313 -4 367 -7 393 -22 39 -21 71 -56 84
-91 8 -19 11 -389 11 -1181 l0 -1152 -23 -44 c-16 -33 -34 -51 -67 -68 l-44
-22 -1152 0 c-792 0 -1162 3 -1181 11 -35 13 -70 45 -91 84 -16 27 -17 130
-20 1150 -2 616 0 1143 3 1172 7 62 37 109 85 137 34 21 50 21 717 24 l682 3
21 26 c26 34 25 56 -4 90 l-24 28 -659 1 c-362 1 -679 -2 -704 -6z"/>
<path d="M3616 2208 c-19 -17 -94 -204 -301 -747 -151 -399 -275 -737 -275
-752 0 -31 40 -69 72 -69 49 0 58 16 152 263 l38 97 378 0 c357 0 380 -1 389
-18 5 -10 33 -81 61 -158 50 -135 81 -184 115 -184 29 0 64 23 75 50 10 25
-15 98 -263 756 -184 487 -283 738 -300 757 -33 36 -103 39 -141 5z m233 -636
l159 -422 -325 0 c-306 0 -325 1 -318 18 3 9 73 193 155 407 82 215 152 398
156 408 3 10 8 16 10 14 2 -1 75 -193 163 -425z"/>
<path d="M900 2043 c-21 -27 -21 -33 -18 -333 4 -300 4 -306 31 -386 28 -85
81 -175 142 -243 58 -63 175 -137 268 -167 72 -24 104 -28 262 -33 l179 -6
-73 -54 c-80 -60 -98 -89 -81 -132 15 -34 62 -56 93 -42 26 13 301 215 340
251 27 26 36 72 19 99 -19 30 -357 273 -379 273 -57 0 -94 -50 -73 -99 6 -14
45 -51 86 -81 l76 -55 -146 -3 c-104 -2 -164 2 -212 13 -183 42 -326 184 -369
366 -11 49 -15 129 -15 342 0 264 -1 278 -20 297 -30 30 -83 27 -110 -7z"/>
</g>
</svg>
